<svg width="390" height="139" viewBox="0 0 390 139" fill="none" xmlns="http://www.w3.org/2000/svg">
<mask id="mask0_196_611" style="mask-type:alpha" maskUnits="userSpaceOnUse" x="0" y="0" width="390" height="139">
<path d="M27.6628 0L0 18.4326V139H364.151L390 121.776V0H27.6628Z" fill="black"/>
</mask>
<g mask="url(#mask0_196_611)">
<path d="M360.891 111.098H385.468L308.803 195.799H284.223L360.891 111.098Z" fill="#00FF7F"/>
<path d="M413.729 26.2915H438.308L361.64 111.293H337.064L413.729 26.2915Z" fill="#00FF7F"/>
<path d="M405.989 111.299H430.569L353.901 196H329.321L405.989 111.299Z" fill="#00FF7F"/>
<path d="M313.668 111.098H317.248L240.58 195.799H237L313.668 111.098Z" fill="#00FF7F"/>
<path d="M318.915 111.098H321.448L244.78 195.799H242.25L318.915 111.098Z" fill="#00FF7F"/>
<path d="M322.591 111.098H324.072L247.407 195.799H245.923L322.591 111.098Z" fill="#00FF7F"/>
<path d="M335.189 111.098H335.621L258.953 195.799H258.521L335.189 111.098Z" fill="#00FF7F"/>
<path d="M336.239 111.098H336.67L260.002 195.799H259.571L336.239 111.098Z" fill="#00FF7F"/>
<path d="M337.289 111.098H337.72L261.055 195.799H260.624L337.289 111.098Z" fill="#00FF7F"/>
<path d="M334.14 111.098H334.571L257.904 195.799H257.472L334.14 111.098Z" fill="#00FF7F"/>
<path d="M333.091 111.098H333.522L256.854 195.799H256.423L333.091 111.098Z" fill="#00FF7F"/>
<path d="M332.038 111.098H332.47L255.805 195.799H255.374L332.038 111.098Z" fill="#00FF7F"/>
<path d="M330.989 111.098H331.42L254.755 195.799H254.324L330.989 111.098Z" fill="#00FF7F"/>
<path d="M329.415 111.098H330.371L253.703 195.799H252.747L329.415 111.098Z" fill="#00FF7F"/>
<path d="M327.316 111.098H328.272L251.604 195.799H250.648L327.316 111.098Z" fill="#00FF7F"/>
<path d="M325.214 111.098H326.17L249.505 195.799H248.549L325.214 111.098Z" fill="#00FF7F"/>
<path d="M-22.109 34.0977H2.46755L-74.1974 118.799H-98.7769L-22.109 34.0977Z" fill="#00FF7F"/>
<path d="M124.225 -51H148.802L72.1366 34.0015H47.5571L124.225 -51Z" fill="#00FF7F"/>
<path d="M30.7289 -50.7085H55.3084L-21.3595 34.293H-45.936L30.7289 -50.7085Z" fill="#00FF7F"/>
<path d="M22.9892 34.2986H47.5686L-29.0993 119H-53.6787L22.9892 34.2986Z" fill="#00FF7F"/>
</g>
</svg>
